<?xml version="1.0"?>
<svg xmlns="http://www.w3.org/2000/svg" xmlns:xlink="http://www.w3.org/1999/xlink" xmlns:svgjs="http://svgjs.com/svgjs" version="1.1" width="512" height="512" x="0" y="0" viewBox="0 0 512 512" style="enable-background:new 0 0 512 512" xml:space="preserve" class=""><circle r="256" cx="256" cy="256" fill="#37d2d7" shape="circle"/><g transform="matrix(0.61,0,0,0.61,99.85153884887697,99.83464156150819)"><g xmlns="http://www.w3.org/2000/svg" id="Outline"><path d="M273.117,173.5c5.112-29.557,1.121-48.092,1.08-48.276l15.6-3.554c.2.865,4.795,21.555-.914,54.558ZM171.906,27.174l-13.427,8.7a230.038,230.038,0,0,1,13.293,23.644l14.372-7.034A246.176,246.176,0,0,0,171.906,27.174ZM200,496H376a8,8,0,0,0,8-8V452.72a182.211,182.211,0,0,1,1.392-22.425l-15.877-1.977A198.145,198.145,0,0,0,368,452.72V480H208V464h56V448H160a40.045,40.045,0,0,1-40-40v-.5a65.434,65.434,0,0,0,38.628-18.817l7.029-7.029-11.314-11.314-7.03,7.03A49.561,49.561,0,0,1,120,391.355V376a8,8,0,0,0-8-8H88a16,16,0,0,1,0-32h24a8,8,0,0,0,8-8V291H104v29H88a32,32,0,0,0,0,64h16v24a56.063,56.063,0,0,0,56,56h32v24A8,8,0,0,0,200,496ZM354.343,146.343c-1.649,1.649-38.678,39.294-42.09,93.657H288.439c44.147-61.417,36.373-125.8,35.994-128.7l-15.867,2.063c.022.175,2.175,17.729-2.054,42.419A181.159,181.159,0,0,1,268.267,240H240.7c36.036-52.5,15.837-118.709,14.931-121.59L240.365,123.2c.181.579,15.8,52.16-6.146,96.289-2.444-9.376-5.326-18.493-8.542-27.317,3.61-35.182-2.91-67.111-18.913-92.445l-13.528,8.544c8.51,13.472,13.933,29.2,16.193,46.51a424.753,424.753,0,0,0-54.581-81.836L142.652,83.3c19.539,23.006,65.676,83.551,79.833,156.7H205.878c-15.788-48.766-42.587-85.427-62.666-107.885h0q-1.848-2.067-3.556-3.906l-11.734,10.878q1.61,1.737,3.358,3.689h0C149.637,163.307,173.906,196.331,189,240H173.8c-19.266-54.942-73.533-94.366-104.857-113.3L60.67,140.393C89.081,157.566,137.517,192.48,156.7,240H140.358a174.994,174.994,0,0,0-16.718-21.4l-11.807,10.8q4.838,5.289,9.167,10.971V256H408v27.28a181.55,181.55,0,0,1-19.156,81.143,197.571,197.571,0,0,0-16.756,48.338L387.756,416a181.745,181.745,0,0,1,15.4-44.422A197.558,197.558,0,0,0,424,283.28V248a8,8,0,0,0-6.111-7.766c7.361-9.577,16.508-23.581,20.192-37.908l-15.5-3.985c-4.6,17.885-20.612,36.466-25.333,41.659H379.774c21.812-26.315,27.827-60.942,28.118-62.685l-15.782-2.639c-.074.439-7.561,43.072-34.873,65.324H328.316c3.5-47.731,36.992-81.992,37.349-82.352L360,152Zm5.88,203.769a228.631,228.631,0,0,0-10.844,25.462l15.072,5.366a212.915,212.915,0,0,1,10.082-23.673,165.605,165.605,0,0,0,15.2-46.807l-15.781-2.638A149.7,149.7,0,0,1,360.223,350.112ZM392,283.279V280H376v3.279c0,4-.167,8.063-.5,12.066l15.946,1.31C391.815,292.218,392,287.718,392,283.279ZM101.405,48.923l36.164,7.232a8,8,0,0,1,4.088,13.5l-20.8,20.8,6.9,27.606a8,8,0,0,1-10.732,9.368L80,112.616,42.971,127.428a8,8,0,0,1-10.732-9.368l6.9-27.606-20.8-20.8a8,8,0,0,1,4.088-13.5L58.6,48.923l14.25-28.5a8,8,0,0,1,14.31,0Zm18.368,19.99L94.431,63.845a8,8,0,0,1-5.586-4.267L80,41.889,71.155,59.578a8,8,0,0,1-5.586,4.267L40.227,68.913l13.43,13.43a8,8,0,0,1,2.1,7.6l-4.205,16.821L77.029,96.572a8,8,0,0,1,5.942,0l25.473,10.189-4.2-16.821a8,8,0,0,1,2.1-7.6Zm342.892-18.1a16.019,16.019,0,0,0-22.293,3.874h0a16,16,0,1,0,22.294-3.875Zm25.463-29.959a65.531,65.531,0,0,1-4.138,69.156l-13.4,19.035L485.205,136.2a8,8,0,0,1-.5,8.4l-27.628,39.251a8,8,0,0,1-14.539-4.807l.622-24.555L428.87,144.426l-8.187,21.213a8,8,0,0,1-12.069,3.662l-39.251-27.629a8,8,0,0,1-.625-12.6l17.208-14.864-14.289-10.058-22.9,8.87a8,8,0,0,1-9.431-12.065l27.628-39.251a8.005,8.005,0,0,1,7.736-3.306L405.173,63l13.4-19.036a65.531,65.531,0,0,1,63.7-27.226A8,8,0,0,1,488.128,20.857ZM394.876,77.628l-17.688-2.667-9.575,13.6,2.259-.874a8,8,0,0,1,7.493.918l6.542,4.605Zm20.507,57.3-15.951-11.228-12.481,10.781,22.493,15.833Zm53.39,4.5L460.3,123.677l-10.969,15.582,6.542,4.6a8,8,0,0,1,3.393,6.745l-.061,2.421ZM475.83,32.112a49.558,49.558,0,0,0-44.174,21.062l-16.24,23.071,0,.008-18.419,26.168,39.25,27.628L470.906,80.8A49.579,49.579,0,0,0,475.83,32.112Zm-92.97,148-13.72-8.232-24,40,13.72,8.232ZM330.518,71.332l-11.6,2.8a47.973,47.973,0,0,1-84.048,20.246s-17.024,3.867-18.911,3.867a24.017,24.017,0,0,1-23.282-18.381A24.348,24.348,0,0,1,192,74.225,23.937,23.937,0,0,1,210.382,50.9l16.8-4.052A47.9,47.9,0,0,1,234.849,33.6l12.379,10.138A31.971,31.971,0,0,0,242.386,76.1l61.491-14.813A32.037,32.037,0,0,0,272,32a31.661,31.661,0,0,0-14.153,3.291l-7.088-14.345a47.968,47.968,0,0,1,53.322,7.385l15.186-3.658a24.024,24.024,0,0,1,28.951,17.713,24.362,24.362,0,0,1,.672,5.634A23.928,23.928,0,0,1,330.518,71.332Zm-103.8,8.547A47.769,47.769,0,0,1,224,64.073l-9.867,2.379A7.982,7.982,0,0,0,208,74.225a8.252,8.252,0,0,0,.233,1.909,7.993,7.993,0,0,0,9.643,5.874Zm73.761-1.31L253.293,89.934a31.95,31.95,0,0,0,47.181-11.365ZM332.89,48.015a8.263,8.263,0,0,0-.232-1.908,8,8,0,0,0-9.644-5.884l-8.263,1.99a47.617,47.617,0,0,1,4.8,15.3l7.215-1.738A7.972,7.972,0,0,0,332.89,48.015ZM272,39.995V56h16v-16ZM18.343,258.343,40,236.687V208a8,8,0,0,1,12.438-6.656L72,214.385l19.562-13.041A8,8,0,0,1,104,208v36.687l21.657,21.656A8,8,0,0,1,120,280H84.944L71.155,307.578A8,8,0,0,1,64,312c-.109,0-.218,0-.327-.007a8,8,0,0,1-7.1-5.009L45.041,278.291,21.814,271.7a8,8,0,0,1-3.471-13.353Zm20.946,1.682,13.9,3.946a8,8,0,0,1,5.237,4.711l6.37,15.844,8.052-16.1A8,8,0,0,1,80,264h20.687L90.343,253.657A8,8,0,0,1,88,248V222.948l-11.562,7.708a8,8,0,0,1-8.876,0L56,222.948V240a8,8,0,0,1-2.343,5.657ZM22.255,175.807c.208.047,21.027,4.826,45.777,18.963l7.936-13.894c-26.982-15.41-49.3-20.478-50.233-20.686ZM379.889,42.772C382.617,35.389,384,26.381,384,16H368c0,10.566-1.7,17.375-3.119,21.228Zm112.088,171.5,2.046-15.869c-24.172-3.121-41.814,13.447-42.553,14.153l11.06,11.562C462.656,223.994,475.569,212.148,491.977,214.268ZM480,264H464v16H448v16h16v16h16V296h16V280H480ZM64,440V424H80V408H64V392H48v16H32v16H48v16Zm384-80V344H432v16Zm8,16v16h16V376ZM16,368H32V352H16Zm280-96v16h16V272Zm-32,48v16h16V320ZM112,16V32h16V16ZM336,144h16V128H336Z" fill="#ffffff" data-original="#000000" style="" class=""/></g></g></svg>
