<?xml version="1.0" encoding="iso-8859-1"?>
<!-- Generator: Adobe Illustrator 19.0.0, SVG Export Plug-In . SVG Version: 6.00 Build 0)  -->
<svg version="1.1" id="Capa_1" xmlns="http://www.w3.org/2000/svg" xmlns:xlink="http://www.w3.org/1999/xlink" x="0px" y="0px"
	 viewBox="0 0 511.998 511.998" style="enable-background:new 0 0 511.998 511.998;" xml:space="preserve">
<g>
	<g>
		<path d="M492.102,394.85c-26.169,22.35-55.207,40.688-86.128,54.688l-27.717-79.712h39.369v-15.023
			c0-47.275-38.461-85.737-85.737-85.737H212.455h-18.89l-9.075-30.051h133.117v-30.047H175.415L128.422,53.36l-0.25-0.828
			l-0.345-0.795c-9.243-21.355-26.301-37.699-48.033-46.017C58.062-2.597,34.451-1.823,13.31,7.902L1.524,13.323l104.497,356.501
			h30.503l-27.826,80.92c-31.924-14.145-61.88-32.902-88.803-55.896L0.382,417.697c71.202,60.811,161.982,94.301,255.617,94.301
			s184.415-33.49,255.617-94.301L492.102,394.85z M38.071,31.187c10.265-2.106,20.936-1.254,30.982,2.593
			c13.862,5.306,24.796,15.636,30.87,29.143l44.104,146.044H90.182L38.071,31.187z M98.99,239.014h54.111l9.075,30.051h-54.378
			L98.99,239.014z M128.525,339.779l-11.92-40.666h54.645h41.205H331.89c25.505,0,47.058,17.232,53.632,40.666H128.525z
			 M255.998,481.951c-40.91,0.001-81.227-6.931-119.322-20.17l31.621-91.956h178.145l31.633,90.974
			C339.171,474.671,297.897,481.951,255.998,481.951z"/>
	</g>
</g>
<g>
</g>
<g>
</g>
<g>
</g>
<g>
</g>
<g>
</g>
<g>
</g>
<g>
</g>
<g>
</g>
<g>
</g>
<g>
</g>
<g>
</g>
<g>
</g>
<g>
</g>
<g>
</g>
<g>
</g>
</svg>
