<?xml version="1.0"?>
<svg xmlns="http://www.w3.org/2000/svg" xmlns:xlink="http://www.w3.org/1999/xlink" xmlns:svgjs="http://svgjs.com/svgjs" version="1.1" width="512" height="512" x="0" y="0" viewBox="0 0 150 150" style="enable-background:new 0 0 512 512" xml:space="preserve" class=""><circle r="75" cx="75" cy="75" fill="#37d2d7" shape="circle"/><g transform="matrix(0.68,0,0,0.68,23.999999389648437,23.999999389648437)"><path xmlns="http://www.w3.org/2000/svg" d="m136.01 140h-122.02a4 4 0 0 1 -3.99-3.99v-122.02a4 4 0 0 1 3.99-3.99h122.02a4 4 0 0 1 3.99 3.99v122.02a4 4 0 0 1 -3.99 3.99zm-122.02-128a1.993 1.993 0 0 0 -1.99 1.99v122.02a1.993 1.993 0 0 0 1.99 1.99h122.02a1.993 1.993 0 0 0 1.99-1.99v-122.02a1.993 1.993 0 0 0 -1.99-1.99z" fill="#ffffff" data-original="#000000" style="" class=""/><path xmlns="http://www.w3.org/2000/svg" d="m139 34.339h-128a1 1 0 0 1 0-2h128a1 1 0 0 1 0 2z" fill="#ffffff" data-original="#000000" style="" class=""/><path xmlns="http://www.w3.org/2000/svg" d="m126.318 27.566a5.46 5.46 0 0 1 -5.391-6.315 5.463 5.463 0 1 1 6.25 6.25 5.685 5.685 0 0 1 -.859.065zm0-8.921a3.553 3.553 0 0 0 -.551.042 3.488 3.488 0 0 0 -2.865 2.864 3.467 3.467 0 1 0 3.416-2.906z" fill="#ffffff" data-original="#000000" style="" class=""/><path xmlns="http://www.w3.org/2000/svg" d="m106.536 27.566a5.46 5.46 0 0 1 -5.392-6.315 5.464 5.464 0 1 1 6.25 6.25 5.682 5.682 0 0 1 -.858.065zm-3.414-6.014a3.464 3.464 0 1 0 2.865-2.865 3.462 3.462 0 0 0 -2.865 2.865z" fill="#ffffff" data-original="#000000" style="" class=""/><path xmlns="http://www.w3.org/2000/svg" d="m86.753 27.567a5.454 5.454 0 1 1 .859-.066 5.687 5.687 0 0 1 -.859.066zm0-8.922a3.553 3.553 0 0 0 -.551.042 3.488 3.488 0 0 0 -2.865 2.864 3.467 3.467 0 1 0 3.416-2.906z" fill="#ffffff" data-original="#000000" style="" class=""/><path xmlns="http://www.w3.org/2000/svg" d="m71.648 23.105h-54.668a1 1 0 0 1 0-2h54.668a1 1 0 0 1 0 2z" fill="#ffffff" data-original="#000000" style="" class=""/><path xmlns="http://www.w3.org/2000/svg" d="m60.817 104.93a1 1 0 0 1 -.442-.1l-27.421-13.568a1 1 0 0 1 -.054-1.762l27.421-15.7a1 1 0 1 1 .994 1.735l-25.793 14.765 25.74 12.732a1 1 0 0 1 -.445 1.9z" fill="#ffffff" data-original="#000000" style="" class=""/><path xmlns="http://www.w3.org/2000/svg" d="m89.183 104.93a1 1 0 0 1 -.445-1.9l25.74-12.73-25.793-14.772a1 1 0 1 1 .994-1.735l27.421 15.707a1 1 0 0 1 -.054 1.764l-27.421 13.562a1 1 0 0 1 -.442.104z" fill="#ffffff" data-original="#000000" style="" class=""/><path xmlns="http://www.w3.org/2000/svg" d="m64.336 116.429a1 1 0 0 1 -.925-1.378l21.426-52.512a1 1 0 0 1 1.852.755l-21.426 52.513a1 1 0 0 1 -.927.622z" fill="#ffffff" data-original="#000000" style="" class=""/></g></svg>
